<?xml version="1.0" encoding="UTF-8" standalone="no"?>
<!DOCTYPE svg PUBLIC "-//W3C//DTD SVG 1.1//EN"
 "http://www.w3.org/Graphics/SVG/1.1/DTD/svg11.dtd">
<!-- Generated by graphviz version 2.47.3 (20210619.1520)
 -->
<!-- Title: dependencies Pages: 1 -->
<svg width="1146pt" height="174pt"
 viewBox="0.00 0.00 1146.00 173.80" xmlns="http://www.w3.org/2000/svg" xmlns:xlink="http://www.w3.org/1999/xlink">
<g id="graph0" class="graph" transform="scale(1 1) rotate(0) translate(4 169.8)">
<title>dependencies</title>
<polygon fill="white" stroke="transparent" points="-4,4 -4,-169.8 1142,-169.8 1142,4 -4,4"/>
<text text-anchor="middle" x="569" y="-8.2" font-family="sans-serif" font-size="14.00">dependencies</text>
<g id="clust1" class="cluster">
<title>cluster_SearchGiphyImagesModule</title>
<polygon fill="none" stroke="black" stroke-dasharray="1,5" points="8,-32.8 8,-157.8 1130,-157.8 1130,-32.8 8,-32.8"/>
</g>
<g id="clust7" class="cluster">
<title>cluster_SearchGiphyImagesModule_imports</title>
<polygon fill="none" stroke="black" points="888,-40.8 888,-92.8 1122,-92.8 1122,-40.8 888,-40.8"/>
</g>
<g id="clust2" class="cluster">
<title>cluster_SearchGiphyImagesModule_declarations</title>
<polygon fill="none" stroke="black" points="16,-40.8 16,-92.8 880,-92.8 880,-40.8 16,-40.8"/>
</g>
<!-- GiphyImagesGridComponent -->
<g id="node1" class="node">
<title>GiphyImagesGridComponent</title>
<polygon fill="#ffffb3" stroke="black" points="872.41,-84.8 689.59,-84.8 689.59,-48.8 872.41,-48.8 872.41,-84.8"/>
<text text-anchor="middle" x="781" y="-62.6" font-family="Times,serif" font-size="14.00">GiphyImagesGridComponent</text>
</g>
<!-- SearchGiphyImagesModule -->
<g id="node5" class="node">
<title>SearchGiphyImagesModule</title>
<polygon fill="#8dd3c7" stroke="black" points="637.56,-149.8 634.56,-153.8 613.56,-153.8 610.56,-149.8 464.44,-149.8 464.44,-113.8 637.56,-113.8 637.56,-149.8"/>
<text text-anchor="middle" x="551" y="-127.6" font-family="Times,serif" font-size="14.00">SearchGiphyImagesModule</text>
</g>
<!-- GiphyImagesGridComponent&#45;&gt;SearchGiphyImagesModule -->
<g id="edge1" class="edge">
<title>GiphyImagesGridComponent&#45;&gt;SearchGiphyImagesModule</title>
<path fill="none" stroke="black" d="M781,-84.82C781,-102.17 781,-125.8 781,-125.8 781,-125.8 647.63,-125.8 647.63,-125.8"/>
<polygon fill="black" stroke="black" points="647.63,-122.3 637.63,-125.8 647.63,-129.3 647.63,-122.3"/>
</g>
<!-- GiphyImagesGridPaginationComponent -->
<g id="node2" class="node">
<title>GiphyImagesGridPaginationComponent</title>
<polygon fill="#ffffb3" stroke="black" points="672.3,-84.8 429.7,-84.8 429.7,-48.8 672.3,-48.8 672.3,-84.8"/>
<text text-anchor="middle" x="551" y="-62.6" font-family="Times,serif" font-size="14.00">GiphyImagesGridPaginationComponent</text>
</g>
<!-- GiphyImagesGridPaginationComponent&#45;&gt;SearchGiphyImagesModule -->
<g id="edge2" class="edge">
<title>GiphyImagesGridPaginationComponent&#45;&gt;SearchGiphyImagesModule</title>
<path fill="none" stroke="black" d="M551,-84.91C551,-84.91 551,-103.79 551,-103.79"/>
<polygon fill="black" stroke="black" points="547.5,-103.79 551,-113.79 554.5,-103.79 547.5,-103.79"/>
</g>
<!-- GiphyImagesSearchbarComponent -->
<g id="node3" class="node">
<title>GiphyImagesSearchbarComponent</title>
<polygon fill="#ffffb3" stroke="black" points="411.22,-84.8 198.78,-84.8 198.78,-48.8 411.22,-48.8 411.22,-84.8"/>
<text text-anchor="middle" x="305" y="-62.6" font-family="Times,serif" font-size="14.00">GiphyImagesSearchbarComponent</text>
</g>
<!-- GiphyImagesSearchbarComponent&#45;&gt;SearchGiphyImagesModule -->
<g id="edge3" class="edge">
<title>GiphyImagesSearchbarComponent&#45;&gt;SearchGiphyImagesModule</title>
<path fill="none" stroke="black" d="M305,-84.82C305,-102.17 305,-125.8 305,-125.8 305,-125.8 454.27,-125.8 454.27,-125.8"/>
<polygon fill="black" stroke="black" points="454.27,-129.3 464.27,-125.8 454.27,-122.3 454.27,-129.3"/>
</g>
<!-- SearchGiphyImagesPage -->
<g id="node4" class="node">
<title>SearchGiphyImagesPage</title>
<polygon fill="#ffffb3" stroke="black" points="180.22,-84.8 23.78,-84.8 23.78,-48.8 180.22,-48.8 180.22,-84.8"/>
<text text-anchor="middle" x="102" y="-62.6" font-family="Times,serif" font-size="14.00">SearchGiphyImagesPage</text>
</g>
<!-- SearchGiphyImagesPage&#45;&gt;SearchGiphyImagesModule -->
<g id="edge4" class="edge">
<title>SearchGiphyImagesPage&#45;&gt;SearchGiphyImagesModule</title>
<path fill="none" stroke="black" d="M102,-85.08C102,-106.12 102,-137.8 102,-137.8 102,-137.8 454.43,-137.8 454.43,-137.8"/>
<polygon fill="black" stroke="black" points="454.43,-141.3 464.43,-137.8 454.43,-134.3 454.43,-141.3"/>
</g>
<!-- SearchGiphyImagesRoutingModule -->
<g id="node6" class="node">
<title>SearchGiphyImagesRoutingModule</title>
<polygon fill="#8dd3c7" stroke="black" points="1114.18,-84.8 1111.18,-88.8 1090.18,-88.8 1087.18,-84.8 895.82,-84.8 895.82,-48.8 1114.18,-48.8 1114.18,-84.8"/>
<text text-anchor="middle" x="1005" y="-62.6" font-family="Times,serif" font-size="14.00">SearchGiphyImagesRoutingModule</text>
</g>
<!-- SearchGiphyImagesRoutingModule&#45;&gt;SearchGiphyImagesModule -->
<g id="edge5" class="edge">
<title>SearchGiphyImagesRoutingModule&#45;&gt;SearchGiphyImagesModule</title>
<path fill="none" stroke="black" d="M1005,-85.08C1005,-106.12 1005,-137.8 1005,-137.8 1005,-137.8 647.73,-137.8 647.73,-137.8"/>
<polygon fill="black" stroke="black" points="647.73,-134.3 637.73,-137.8 647.73,-141.3 647.73,-134.3"/>
</g>
</g>
</svg>
