<?xml version="1.0" encoding="UTF-8" standalone="no"?>
<!DOCTYPE svg PUBLIC "-//W3C//DTD SVG 1.1//EN"
 "http://www.w3.org/Graphics/SVG/1.1/DTD/svg11.dtd">
<!-- Generated by graphviz version 2.47.3 (20210619.1520)
 -->
<!-- Title: dependencies Pages: 1 -->
<svg width="1874pt" height="253pt"
 viewBox="0.00 0.00 1874.00 252.80" xmlns="http://www.w3.org/2000/svg" xmlns:xlink="http://www.w3.org/1999/xlink">
<g id="graph0" class="graph" transform="scale(1 1) rotate(0) translate(4 248.8)">
<title>dependencies</title>
<polygon fill="white" stroke="transparent" points="-4,4 -4,-248.8 1870,-248.8 1870,4 -4,4"/>
<text text-anchor="middle" x="933" y="-8.2" font-family="sans-serif" font-size="14.00">dependencies</text>
<g id="clust1" class="cluster">
<title>cluster_AppModule</title>
<polygon fill="none" stroke="black" stroke-dasharray="1,5" points="8,-32.8 8,-236.8 416,-236.8 416,-32.8 8,-32.8"/>
</g>
<g id="clust2" class="cluster">
<title>cluster_AppModule_declarations</title>
<polygon fill="none" stroke="black" points="16,-40.8 16,-92.8 138,-92.8 138,-40.8 16,-40.8"/>
</g>
<g id="clust4" class="cluster">
<title>cluster_AppModule_imports</title>
<polygon fill="none" stroke="black" points="146,-40.8 146,-92.8 408,-92.8 408,-40.8 146,-40.8"/>
</g>
<g id="clust6" class="cluster">
<title>cluster_AppModule_bootstrap</title>
<polygon fill="none" stroke="black" points="156,-176.8 156,-228.8 280,-228.8 280,-176.8 156,-176.8"/>
</g>
<g id="clust14" class="cluster">
<title>cluster_LayoutModule</title>
<polygon fill="none" stroke="black" stroke-dasharray="1,5" points="424,-100.8 424,-168.8 728,-168.8 728,-100.8 424,-100.8"/>
</g>
<g id="clust15" class="cluster">
<title>cluster_LayoutModule_declarations</title>
<polygon fill="none" stroke="black" points="582,-108.8 582,-160.8 720,-160.8 720,-108.8 582,-108.8"/>
</g>
<g id="clust18" class="cluster">
<title>cluster_LayoutModule_exports</title>
<polygon fill="none" stroke="black" points="432,-108.8 432,-160.8 574,-160.8 574,-108.8 432,-108.8"/>
</g>
<g id="clust21" class="cluster">
<title>cluster_SearchGiphyImagesModule</title>
<polygon fill="none" stroke="black" stroke-dasharray="1,5" points="736,-32.8 736,-160.8 1858,-160.8 1858,-32.8 736,-32.8"/>
</g>
<g id="clust22" class="cluster">
<title>cluster_SearchGiphyImagesModule_declarations</title>
<polygon fill="none" stroke="black" points="986,-40.8 986,-92.8 1850,-92.8 1850,-40.8 986,-40.8"/>
</g>
<g id="clust27" class="cluster">
<title>cluster_SearchGiphyImagesModule_imports</title>
<polygon fill="none" stroke="black" points="744,-40.8 744,-92.8 978,-92.8 978,-40.8 744,-40.8"/>
</g>
<!-- AppComponent -->
<g id="node1" class="node">
<title>AppComponent</title>
<polygon fill="#ffffb3" stroke="black" points="129.94,-84.8 24.06,-84.8 24.06,-48.8 129.94,-48.8 129.94,-84.8"/>
<text text-anchor="middle" x="77" y="-62.6" font-family="Times,serif" font-size="14.00">AppComponent</text>
</g>
<!-- AppModule -->
<g id="node2" class="node">
<title>AppModule</title>
<polygon fill="#8dd3c7" stroke="black" points="259.66,-152.8 256.66,-156.8 235.66,-156.8 232.66,-152.8 176.34,-152.8 176.34,-116.8 259.66,-116.8 259.66,-152.8"/>
<text text-anchor="middle" x="218" y="-130.6" font-family="Times,serif" font-size="14.00">AppModule</text>
</g>
<!-- AppComponent&#45;&gt;AppModule -->
<g id="edge1" class="edge">
<title>AppComponent&#45;&gt;AppModule</title>
<path fill="none" stroke="black" d="M77,-85.02C77,-105.17 77,-134.8 77,-134.8 77,-134.8 166.08,-134.8 166.08,-134.8"/>
<polygon fill="black" stroke="black" points="166.08,-138.3 176.08,-134.8 166.08,-131.3 166.08,-138.3"/>
</g>
<!-- AppComponent  -->
<g id="node5" class="node">
<title>AppComponent </title>
<polygon fill="#80b1d3" stroke="black" points="272.44,-220.8 163.56,-220.8 163.56,-184.8 272.44,-184.8 272.44,-220.8"/>
<text text-anchor="middle" x="218" y="-198.6" font-family="Times,serif" font-size="14.00">AppComponent </text>
</g>
<!-- AppModule&#45;&gt;AppComponent  -->
<g id="edge4" class="edge">
<title>AppModule&#45;&gt;AppComponent </title>
<path fill="none" stroke="black" stroke-dasharray="1,5" d="M218,-153.02C218,-153.02 218,-174.53 218,-174.53"/>
<polygon fill="black" stroke="black" points="214.5,-174.53 218,-184.53 221.5,-174.53 214.5,-174.53"/>
</g>
<!-- AppRoutingModule -->
<g id="node3" class="node">
<title>AppRoutingModule</title>
<polygon fill="#8dd3c7" stroke="black" points="282.27,-84.8 279.27,-88.8 258.27,-88.8 255.27,-84.8 153.73,-84.8 153.73,-48.8 282.27,-48.8 282.27,-84.8"/>
<text text-anchor="middle" x="218" y="-62.6" font-family="Times,serif" font-size="14.00">AppRoutingModule</text>
</g>
<!-- AppRoutingModule&#45;&gt;AppModule -->
<g id="edge2" class="edge">
<title>AppRoutingModule&#45;&gt;AppModule</title>
<path fill="none" stroke="black" d="M218,-85.02C218,-85.02 218,-106.53 218,-106.53"/>
<polygon fill="black" stroke="black" points="214.5,-106.53 218,-116.53 221.5,-106.53 214.5,-106.53"/>
</g>
<!-- LayoutModule -->
<g id="node4" class="node">
<title>LayoutModule</title>
<polygon fill="#8dd3c7" stroke="black" points="399.71,-84.8 396.71,-88.8 375.71,-88.8 372.71,-84.8 300.29,-84.8 300.29,-48.8 399.71,-48.8 399.71,-84.8"/>
<text text-anchor="middle" x="350" y="-62.6" font-family="Times,serif" font-size="14.00">LayoutModule</text>
</g>
<!-- LayoutModule&#45;&gt;AppModule -->
<g id="edge3" class="edge">
<title>LayoutModule&#45;&gt;AppModule</title>
<path fill="none" stroke="black" d="M333.47,-85.09C333.47,-107.01 333.47,-140.8 333.47,-140.8 333.47,-140.8 269.69,-140.8 269.69,-140.8"/>
<polygon fill="black" stroke="black" points="269.69,-137.3 259.69,-140.8 269.69,-144.3 269.69,-137.3"/>
</g>
<!-- HeaderComponent  -->
<g id="node7" class="node">
<title>HeaderComponent </title>
<polygon fill="#fb8072" stroke="black" points="565.74,-152.8 440.26,-152.8 440.26,-116.8 565.74,-116.8 565.74,-152.8"/>
<text text-anchor="middle" x="503" y="-130.6" font-family="Times,serif" font-size="14.00">HeaderComponent </text>
</g>
<!-- LayoutModule&#45;&gt;HeaderComponent  -->
<g id="edge6" class="edge">
<title>LayoutModule&#45;&gt;HeaderComponent </title>
<path fill="none" stroke="black" stroke-dasharray="5,2" d="M366.53,-85.07C366.53,-103.36 366.53,-128.8 366.53,-128.8 366.53,-128.8 430.36,-128.8 430.36,-128.8"/>
<polygon fill="black" stroke="black" points="430.36,-132.3 440.36,-128.8 430.36,-125.3 430.36,-132.3"/>
</g>
<!-- HeaderComponent -->
<g id="node6" class="node">
<title>HeaderComponent</title>
<polygon fill="#ffffb3" stroke="black" points="711.74,-152.8 590.26,-152.8 590.26,-116.8 711.74,-116.8 711.74,-152.8"/>
<text text-anchor="middle" x="651" y="-130.6" font-family="Times,serif" font-size="14.00">HeaderComponent</text>
</g>
<!-- HeaderComponent&#45;&gt;LayoutModule -->
<g id="edge5" class="edge">
<title>HeaderComponent&#45;&gt;LayoutModule</title>
<path fill="none" stroke="black" d="M651,-116.58C651,-96.43 651,-66.8 651,-66.8 651,-66.8 409.7,-66.8 409.7,-66.8"/>
<polygon fill="black" stroke="black" points="409.7,-63.3 399.7,-66.8 409.7,-70.3 409.7,-63.3"/>
</g>
<!-- GiphyImagesGridComponent -->
<g id="node8" class="node">
<title>GiphyImagesGridComponent</title>
<polygon fill="#ffffb3" stroke="black" points="1842.41,-84.8 1659.59,-84.8 1659.59,-48.8 1842.41,-48.8 1842.41,-84.8"/>
<text text-anchor="middle" x="1751" y="-62.6" font-family="Times,serif" font-size="14.00">GiphyImagesGridComponent</text>
</g>
<!-- SearchGiphyImagesModule -->
<g id="node12" class="node">
<title>SearchGiphyImagesModule</title>
<polygon fill="#8dd3c7" stroke="black" points="1361.56,-152.8 1358.56,-156.8 1337.56,-156.8 1334.56,-152.8 1188.44,-152.8 1188.44,-116.8 1361.56,-116.8 1361.56,-152.8"/>
<text text-anchor="middle" x="1275" y="-130.6" font-family="Times,serif" font-size="14.00">SearchGiphyImagesModule</text>
</g>
<!-- GiphyImagesGridComponent&#45;&gt;SearchGiphyImagesModule -->
<g id="edge7" class="edge">
<title>GiphyImagesGridComponent&#45;&gt;SearchGiphyImagesModule</title>
<path fill="none" stroke="black" d="M1751,-85.09C1751,-107.01 1751,-140.8 1751,-140.8 1751,-140.8 1371.75,-140.8 1371.75,-140.8"/>
<polygon fill="black" stroke="black" points="1371.75,-137.3 1361.75,-140.8 1371.75,-144.3 1371.75,-137.3"/>
</g>
<!-- GiphyImagesGridPaginationComponent -->
<g id="node9" class="node">
<title>GiphyImagesGridPaginationComponent</title>
<polygon fill="#ffffb3" stroke="black" points="1642.3,-84.8 1399.7,-84.8 1399.7,-48.8 1642.3,-48.8 1642.3,-84.8"/>
<text text-anchor="middle" x="1521" y="-62.6" font-family="Times,serif" font-size="14.00">GiphyImagesGridPaginationComponent</text>
</g>
<!-- GiphyImagesGridPaginationComponent&#45;&gt;SearchGiphyImagesModule -->
<g id="edge8" class="edge">
<title>GiphyImagesGridPaginationComponent&#45;&gt;SearchGiphyImagesModule</title>
<path fill="none" stroke="black" d="M1521,-85.07C1521,-103.36 1521,-128.8 1521,-128.8 1521,-128.8 1371.73,-128.8 1371.73,-128.8"/>
<polygon fill="black" stroke="black" points="1371.73,-125.3 1361.73,-128.8 1371.73,-132.3 1371.73,-125.3"/>
</g>
<!-- GiphyImagesSearchbarComponent -->
<g id="node10" class="node">
<title>GiphyImagesSearchbarComponent</title>
<polygon fill="#ffffb3" stroke="black" points="1381.22,-84.8 1168.78,-84.8 1168.78,-48.8 1381.22,-48.8 1381.22,-84.8"/>
<text text-anchor="middle" x="1275" y="-62.6" font-family="Times,serif" font-size="14.00">GiphyImagesSearchbarComponent</text>
</g>
<!-- GiphyImagesSearchbarComponent&#45;&gt;SearchGiphyImagesModule -->
<g id="edge9" class="edge">
<title>GiphyImagesSearchbarComponent&#45;&gt;SearchGiphyImagesModule</title>
<path fill="none" stroke="black" d="M1275,-85.02C1275,-85.02 1275,-106.53 1275,-106.53"/>
<polygon fill="black" stroke="black" points="1271.5,-106.53 1275,-116.53 1278.5,-106.53 1271.5,-106.53"/>
</g>
<!-- SearchGiphyImagesPage -->
<g id="node11" class="node">
<title>SearchGiphyImagesPage</title>
<polygon fill="#ffffb3" stroke="black" points="1150.22,-84.8 993.78,-84.8 993.78,-48.8 1150.22,-48.8 1150.22,-84.8"/>
<text text-anchor="middle" x="1072" y="-62.6" font-family="Times,serif" font-size="14.00">SearchGiphyImagesPage</text>
</g>
<!-- SearchGiphyImagesPage&#45;&gt;SearchGiphyImagesModule -->
<g id="edge10" class="edge">
<title>SearchGiphyImagesPage&#45;&gt;SearchGiphyImagesModule</title>
<path fill="none" stroke="black" d="M1072,-85.07C1072,-103.36 1072,-128.8 1072,-128.8 1072,-128.8 1178.32,-128.8 1178.32,-128.8"/>
<polygon fill="black" stroke="black" points="1178.32,-132.3 1188.32,-128.8 1178.32,-125.3 1178.32,-132.3"/>
</g>
<!-- SearchGiphyImagesRoutingModule -->
<g id="node13" class="node">
<title>SearchGiphyImagesRoutingModule</title>
<polygon fill="#8dd3c7" stroke="black" points="970.18,-84.8 967.18,-88.8 946.18,-88.8 943.18,-84.8 751.82,-84.8 751.82,-48.8 970.18,-48.8 970.18,-84.8"/>
<text text-anchor="middle" x="861" y="-62.6" font-family="Times,serif" font-size="14.00">SearchGiphyImagesRoutingModule</text>
</g>
<!-- SearchGiphyImagesRoutingModule&#45;&gt;SearchGiphyImagesModule -->
<g id="edge11" class="edge">
<title>SearchGiphyImagesRoutingModule&#45;&gt;SearchGiphyImagesModule</title>
<path fill="none" stroke="black" d="M861,-85.09C861,-107.01 861,-140.8 861,-140.8 861,-140.8 1178.46,-140.8 1178.46,-140.8"/>
<polygon fill="black" stroke="black" points="1178.46,-144.3 1188.46,-140.8 1178.46,-137.3 1178.46,-144.3"/>
</g>
</g>
</svg>
